<?xml version="1.0" encoding="UTF-8" standalone="no"?>
<!-- Created with Inkscape (http://www.inkscape.org/) -->

<svg
   xmlns:dc="http://purl.org/dc/elements/1.1/"
   xmlns:cc="http://creativecommons.org/ns#"
   xmlns:rdf="http://www.w3.org/1999/02/22-rdf-syntax-ns#"
   xmlns:svg="http://www.w3.org/2000/svg"
   xmlns="http://www.w3.org/2000/svg"
   xmlns:sodipodi="http://sodipodi.sourceforge.net/DTD/sodipodi-0.dtd"
   xmlns:inkscape="http://www.inkscape.org/namespaces/inkscape"
   width="388.60519mm"
   height="147.66615mm"
   viewBox="0 0 388.60519 147.66617"
   version="1.1"
   id="svg8"
   inkscape:version="0.92.5 (2060ec1f9f, 2020-04-08)"
   sodipodi:docname="apito-vistas.svg">
  <defs
     id="defs2">
    <inkscape:path-effect
       only_selected="false"
       apply_with_weight="true"
       apply_no_weight="true"
       helper_size="0"
       steps="2"
       weight="33.333333"
       is_visible="true"
       id="path-effect1136"
       effect="bspline" />
    <inkscape:path-effect
       effect="bspline"
       id="path-effect1132"
       is_visible="true"
       weight="33.333333"
       steps="2"
       helper_size="0"
       apply_no_weight="true"
       apply_with_weight="true"
       only_selected="false" />
    <inkscape:path-effect
       only_selected="false"
       apply_with_weight="true"
       apply_no_weight="true"
       helper_size="0"
       steps="2"
       weight="33.333333"
       is_visible="true"
       id="path-effect1041"
       effect="bspline" />
    <inkscape:path-effect
       only_selected="false"
       apply_with_weight="true"
       apply_no_weight="true"
       helper_size="0"
       steps="2"
       weight="33.333333"
       is_visible="true"
       id="path-effect985"
       effect="bspline" />
    <inkscape:path-effect
       effect="bspline"
       id="path-effect977"
       is_visible="true"
       weight="33.333333"
       steps="2"
       helper_size="0"
       apply_no_weight="true"
       apply_with_weight="true"
       only_selected="false" />
  </defs>
  <sodipodi:namedview
     id="base"
     pagecolor="#ffffff"
     bordercolor="#666666"
     borderopacity="1.0"
     inkscape:pageopacity="0.0"
     inkscape:pageshadow="2"
     inkscape:zoom="1.4142136"
     inkscape:cx="913.89668"
     inkscape:cy="144.74051"
     inkscape:document-units="mm"
     inkscape:current-layer="g1261"
     showgrid="false"
     inkscape:window-width="1848"
     inkscape:window-height="1016"
     inkscape:window-x="72"
     inkscape:window-y="27"
     inkscape:window-maximized="1" />
  <metadata
     id="metadata5">
    <rdf:RDF>
      <cc:Work
         rdf:about="">
        <dc:format>image/svg+xml</dc:format>
        <dc:type
           rdf:resource="http://purl.org/dc/dcmitype/StillImage" />
        <dc:title />
      </cc:Work>
    </rdf:RDF>
  </metadata>
  <g
     inkscape:label="Camada 1"
     inkscape:groupmode="layer"
     id="layer1"
     transform="translate(-51.363053,-53.236343)">
    <path
       style="fill:#ff0000;fill-opacity:1;stroke:none;stroke-width:2;stroke-linecap:round;stroke-linejoin:round;stroke-miterlimit:4;stroke-dasharray:none;stroke-opacity:1;paint-order:markers fill stroke"
       d="m -99.178609,42.794608 a 50,50 0 0 0 -50.000051,50.000048 50,50 0 0 0 50.000051,49.999534 50,50 0 0 0 50.00004,-49.999534 V 42.794608 Z"
       id="circle841"
       inkscape:connector-curvature="0" />
    <circle
       style="fill:#ff0000;fill-opacity:1;stroke:none;stroke-width:2;stroke-linecap:round;stroke-linejoin:round;stroke-miterlimit:4;stroke-dasharray:none;stroke-opacity:1;paint-order:markers fill stroke"
       id="path834"
       cx="-99.178474"
       cy="92.794403"
       r="50" />
    <rect
       y="37.544407"
       x="-71.216118"
       height="18"
       width="50.579594"
       id="rect866-2"
       style="fill:#787878;fill-opacity:1;stroke:none;stroke-width:1.20693517;stroke-linecap:round;stroke-linejoin:round;stroke-miterlimit:4;stroke-dasharray:none;stroke-opacity:1;paint-order:markers fill stroke"
       ry="3.8125801" />
    <path
       style="fill:#787878;fill-opacity:1;stroke:none;stroke-width:2;stroke-linecap:round;stroke-linejoin:round;stroke-miterlimit:4;stroke-dasharray:none;stroke-opacity:1;paint-order:markers fill stroke"
       d="m -99.178609,42.794608 a 50,50 0 0 0 -50.000051,50.000048 50,50 0 0 0 50.000051,49.999534 50,50 0 0 0 50.00004,-49.999534 V 42.794608 Z m 0,7.4998 h 42.50025 v 42.500248 a 42.500176,42.500176 0 0 1 -42.50025,42.499734 42.500176,42.500176 0 0 1 -42.500251,-42.499734 42.500176,42.500176 0 0 1 42.500251,-42.500248 z"
       id="path861"
       inkscape:connector-curvature="0" />
    <path
       style="fill:#787878;fill-opacity:1;stroke:none;stroke-width:0.26458332px;stroke-linecap:butt;stroke-linejoin:miter;stroke-opacity:1"
       d="m 136.92937,102.98467 c -0.56169,-0.80874 -0.47183,-6.784657 -1.57263,-12.82777 -1.10081,-6.043113 -3.39243,-12.154099 -5.39184,-16.063063 -1.99941,-3.908964 -3.70686,-5.616407 -4.83017,-6.896995 -1.12331,-1.280587 -1.6625,-2.134293 -0.35944,-2.650973 1.30305,-0.51668 4.44852,-0.696421 7.03198,-0.651478 2.58346,0.04494 4.60556,0.314557 5.81857,1.931806 1.213,1.617249 1.61743,4.583071 1.86457,9.683072 0.24715,5.100001 0.337,12.333455 -0.22462,18.129697 -0.56162,5.796241 -1.77474,10.154454 -2.33642,9.345704 z"
       id="path975"
       inkscape:connector-curvature="0"
       inkscape:path-effect="#path-effect977"
       inkscape:original-d="m 136.27781,108.15211 c 0.0901,-5.97618 0.17999,-11.952093 0.26959,-17.927745 -2.29115,-6.110697 -4.58277,-12.221683 -6.87455,-18.332127 -1.7071,-1.707628 -3.41454,-3.415074 -5.12221,-5.122214 -0.53891,-0.853966 -1.0781,-1.707668 -1.61754,-2.561106 3.14523,-0.179977 6.2907,-0.359716 9.43565,-0.539181 2.02202,0.269304 4.04412,0.538917 6.06578,0.808771 0.40461,2.964897 0.80904,5.93072 1.21316,8.896474 0.0901,7.234285 0.17999,14.467739 0.26959,21.702006 -1.21294,4.358267 -2.42605,8.716482 -3.63947,13.075122 z"
       transform="translate(-192.91656,-11.437741)" />
    <g
       id="g1255">
      <circle
         r="50"
         cy="111.66646"
         cx="252.80116"
         id="path834-1"
         style="fill:#494949;fill-opacity:1;stroke:none;stroke-width:2;stroke-linecap:round;stroke-linejoin:round;stroke-miterlimit:4;stroke-dasharray:none;stroke-opacity:1;paint-order:markers fill stroke" />
      <rect
         ry="3.8125801"
         style="fill:#000000;fill-opacity:1;stroke:none;stroke-width:1.02613556;stroke-linecap:round;stroke-linejoin:round;stroke-miterlimit:4;stroke-dasharray:none;stroke-opacity:1;paint-order:markers fill stroke"
         id="rect866-2-1"
         width="36.560909"
         height="18"
         x="234.52071"
         y="56.416553" />
      <g
         transform="matrix(1.2098456,0,0,1,-2.2092969,0.73225021)"
         id="g1128">
        <rect
           y="62.184303"
           x="202.62651"
           height="2.5"
           width="16.30566"
           id="rect866-2-1-1"
           style="fill:#d51a1a;fill-opacity:1;stroke:none;stroke-width:0.25538725;stroke-linecap:round;stroke-linejoin:round;stroke-miterlimit:4;stroke-dasharray:none;stroke-opacity:1;paint-order:markers fill stroke"
           ry="0.5295251" />
        <rect
           y="64.684303"
           x="202.62651"
           height="2.5"
           width="16.30566"
           id="rect866-2-1-1-3"
           style="fill:#002aff;fill-opacity:1;stroke:none;stroke-width:0.25538725;stroke-linecap:round;stroke-linejoin:round;stroke-miterlimit:4;stroke-dasharray:none;stroke-opacity:1;paint-order:markers fill stroke"
           ry="0.5295251" />
      </g>
    </g>
    <g
       id="g1173">
      <path
         inkscape:connector-curvature="0"
         id="circle841-4"
         d="M 101.3631,61.666874 A 50.000001,50.000001 0 0 0 51.363053,111.66692 50.000001,50.000001 0 0 0 101.3631,161.66646 50.000001,50.000001 0 0 0 151.36315,111.66692 V 61.666874 Z"
         style="fill:#c3c3c3;fill-opacity:1;stroke:none;stroke-width:2;stroke-linecap:round;stroke-linejoin:round;stroke-miterlimit:4;stroke-dasharray:none;stroke-opacity:1;paint-order:markers fill stroke" />
      <path
         inkscape:connector-curvature="0"
         id="rect1035"
         d="m 133.13843,56.416555 c -2.11217,0 -3.81269,1.700516 -3.81269,3.812685 v 1.43764 h -27.96263 a 50,50 0 0 0 -50.000057,50.00005 50,50 0 0 0 50.000057,49.99953 50,50 0 0 0 50.00004,-49.99953 V 74.416489 h 24.72924 c 2.11217,0 3.81269,-1.7 3.81269,-3.812172 V 60.22924 c 0,-2.112169 -1.70052,-3.812685 -3.81269,-3.812685 z M 101.36311,69.16668 h 27.96263 v 1.437637 c 0,1.905516 1.38534,3.470926 3.20704,3.759978 0.0748,0.08841 0.1454,0.174308 0.22686,0.267168 1.12331,1.280586 2.83078,2.987773 4.83019,6.896735 1.99941,3.908965 4.29112,10.019991 5.39192,16.063103 0.45546,2.500339 0.70332,4.966669 0.8816,7.082769 v 6.99286 A 42.500176,42.500176 0 0 1 101.36311,154.16666 42.500176,42.500176 0 0 1 58.862863,111.66693 42.500176,42.500176 0 0 1 101.36311,69.16668 Z"
         style="fill:#8f8f8f;fill-opacity:1;stroke:none;stroke-width:1.20693505;stroke-linecap:round;stroke-linejoin:round;stroke-miterlimit:4;stroke-dasharray:none;stroke-opacity:1;paint-order:markers fill stroke" />
      <path
         inkscape:connector-curvature="0"
         id="path979"
         d="m 133.13842,56.416554 c -1.9789,0 -3.59629,1.492967 -3.79253,3.418396 v 3.143993 h 50.55918 V 60.22924 c 0,-2.112169 -1.70052,-3.812686 -3.81268,-3.812686 z M 101.3631,61.66688 a 50,50 0 0 0 -50.000047,50.00005 50,50 0 0 0 50.000047,49.99953 50,50 0 0 0 50.00005,-49.99953 V 74.416489 h 24.72924 c 2.11216,0 3.81268,-1.700001 3.81268,-3.812172 v -2.870626 h -50.55918 v 3.253549 c 0.17139,1.728923 1.48897,3.107645 3.18688,3.377055 0.0748,0.08841 0.1454,0.174307 0.22686,0.267168 1.12331,1.280586 2.83078,2.987773 4.8302,6.896735 1.99941,3.908964 4.29111,10.01999 5.39192,16.063102 0.45545,2.50034 0.70331,4.96667 0.8816,7.08277 v 6.99286 A 42.500176,42.500176 0 0 1 101.3631,154.16666 42.500176,42.500176 0 0 1 58.862853,111.66693 42.500176,42.500176 0 0 1 101.3631,69.166679 h 1.69292 l 9.64179,-3.669543 -10.0645,-3.830256 z"
         style="fill:#040404;fill-opacity:1;stroke:none;stroke-width:2;stroke-linecap:round;stroke-linejoin:round;stroke-miterlimit:4;stroke-dasharray:none;stroke-opacity:1;paint-order:markers fill stroke" />
      <path
         inkscape:original-d="m 112.69781,65.497136 c 0,0 -6.68755,-2.65e-4 -10.03172,0 0.0734,1.237031 0.21943,3.711592 0.21943,3.711592 0,0 9.81229,-3.711592 9.81229,-3.711592 z"
         inkscape:path-effect="#path-effect1132"
         inkscape:connector-curvature="0"
         id="path1130"
         d="m 112.69781,65.497136 c -3.34391,0 -6.68755,0 -8.32307,0.618523 -1.63552,0.618524 -1.56236,1.855872 -1.48922,3.093069 0,0 9.81229,-3.711592 9.81229,-3.711592 z"
         style="fill:#002aff;fill-opacity:1;stroke:none;stroke-width:0.26458332px;stroke-linecap:butt;stroke-linejoin:miter;stroke-opacity:1" />
      <path
         transform="matrix(1,0,0,-1,0,131.00167)"
         style="fill:#d51a1a;fill-opacity:1;stroke:none;stroke-width:0.26458332px;stroke-linecap:butt;stroke-linejoin:miter;stroke-opacity:1"
         d="m 112.69781,65.497136 c -3.34391,0 -6.68755,0 -8.32307,0.618523 -1.63552,0.618524 -1.56236,1.855872 -1.48922,3.093069 0,0 9.81229,-3.711592 9.81229,-3.711592 z"
         id="path1134"
         inkscape:connector-curvature="0"
         inkscape:path-effect="#path-effect1136"
         inkscape:original-d="m 112.69781,65.497136 c 0,0 -6.68755,-2.65e-4 -10.03172,0 0.0734,1.237031 0.21943,3.711592 0.21943,3.711592 0,0 9.81229,-3.711592 9.81229,-3.711592 z" />
    </g>
    <g
       id="g1261">
      <circle
         transform="scale(1,-1)"
         r="50"
         cy="-103.23634"
         cx="389.96826"
         id="path834-1-5"
         style="fill:#494949;fill-opacity:1;stroke:none;stroke-width:2;stroke-linecap:round;stroke-linejoin:round;stroke-miterlimit:4;stroke-dasharray:none;stroke-opacity:1;paint-order:markers fill stroke" />
      <rect
         transform="scale(1,-1)"
         ry="3.8627784"
         style="fill:#000000;fill-opacity:1;stroke:none;stroke-width:1.48443854;stroke-linecap:round;stroke-linejoin:round;stroke-miterlimit:4;stroke-dasharray:none;stroke-opacity:1;paint-order:markers fill stroke"
         id="rect866-2-1-6"
         width="36.560909"
         height="37.669289"
         x="371.68781"
         y="-173.30292" />
      <rect
         transform="scale(1,-1)"
         ry="0"
         style="fill:#d51a1a;fill-opacity:1;stroke:none;stroke-width:0.55392659;stroke-linecap:round;stroke-linejoin:round;stroke-miterlimit:4;stroke-dasharray:none;stroke-opacity:1;paint-order:markers fill stroke"
         id="rect866-2-1-1-4"
         width="19.727331"
         height="9.7211161"
         x="380.10458"
         y="-126.25124" />
      <rect
         transform="scale(1,-1)"
         ry="0"
         style="fill:#c3c3c3;fill-opacity:1;stroke:none;stroke-width:0.54418987;stroke-linecap:round;stroke-linejoin:round;stroke-miterlimit:4;stroke-dasharray:none;stroke-opacity:1;paint-order:markers fill stroke"
         id="rect866-2-1-1-3-2"
         width="19.727331"
         height="9.382369"
         x="380.10458"
         y="-135.63362" />
    </g>
    <text
       xml:space="preserve"
       style="font-style:normal;font-variant:normal;font-weight:bold;font-stretch:normal;font-size:27.51666641px;line-height:1.25;font-family:'Accanthis ADF Std';-inkscape-font-specification:'Accanthis ADF Std, Bold';font-variant-ligatures:normal;font-variant-caps:normal;font-variant-numeric:normal;font-feature-settings:normal;text-align:start;letter-spacing:0px;word-spacing:0px;writing-mode:lr-tb;text-anchor:start;stroke-width:0.26458332"
       x="104.46232"
       y="197.87566"
       id="text1265"><tspan
         sodipodi:role="line"
         id="tspan1263"
         x="104.46232"
         y="197.87566"
         style="font-style:normal;font-variant:normal;font-weight:bold;font-stretch:normal;font-size:27.51666641px;font-family:'Accanthis ADF Std';-inkscape-font-specification:'Accanthis ADF Std, Bold';font-variant-ligatures:normal;font-variant-caps:normal;font-variant-numeric:normal;font-feature-settings:normal;text-align:start;writing-mode:lr-tb;text-anchor:start;stroke-width:0.26458332">a)</tspan></text>
    <text
       xml:space="preserve"
       style="font-style:normal;font-variant:normal;font-weight:bold;font-stretch:normal;font-size:27.51666641px;line-height:1.25;font-family:'Accanthis ADF Std';-inkscape-font-specification:'Accanthis ADF Std, Bold';font-variant-ligatures:normal;font-variant-caps:normal;font-variant-numeric:normal;font-feature-settings:normal;text-align:start;letter-spacing:0px;word-spacing:0px;writing-mode:lr-tb;text-anchor:start;stroke-width:0.26458332"
       x="378.79651"
       y="197.87566"
       id="text1265-5"><tspan
         sodipodi:role="line"
         id="tspan1263-0"
         x="378.79651"
         y="197.87566"
         style="font-style:normal;font-variant:normal;font-weight:bold;font-stretch:normal;font-size:27.51666641px;font-family:'Accanthis ADF Std';-inkscape-font-specification:'Accanthis ADF Std, Bold';font-variant-ligatures:normal;font-variant-caps:normal;font-variant-numeric:normal;font-feature-settings:normal;text-align:start;writing-mode:lr-tb;text-anchor:start;stroke-width:0.26458332">c)</tspan></text>
    <text
       xml:space="preserve"
       style="font-style:normal;font-variant:normal;font-weight:bold;font-stretch:normal;font-size:27.51666641px;line-height:1.25;font-family:'Accanthis ADF Std';-inkscape-font-specification:'Accanthis ADF Std, Bold';font-variant-ligatures:normal;font-variant-caps:normal;font-variant-numeric:normal;font-feature-settings:normal;text-align:start;letter-spacing:0px;word-spacing:0px;writing-mode:lr-tb;text-anchor:start;stroke-width:0.26458332"
       x="241.62941"
       y="197.87566"
       id="text1265-0"><tspan
         sodipodi:role="line"
         id="tspan1263-3"
         x="241.62941"
         y="197.87566"
         style="font-style:normal;font-variant:normal;font-weight:bold;font-stretch:normal;font-size:27.51666641px;font-family:'Accanthis ADF Std';-inkscape-font-specification:'Accanthis ADF Std, Bold';font-variant-ligatures:normal;font-variant-caps:normal;font-variant-numeric:normal;font-feature-settings:normal;text-align:start;writing-mode:lr-tb;text-anchor:start;stroke-width:0.26458332">b)</tspan></text>
  </g>
</svg>
